<svg xmlns="http://www.w3.org/2000/svg" viewBox="0 0 1200 400" width="1200" height="400" font-family="'Segoe UI',Ubuntu,Sans-Serif">
  <rect width="1200" height="400" fill="#2e3440"/>
  <text x="60" y="22" fill="#eceff4" font-size="16" font-weight="600">Commits per 7d — last 364 days (2025-09-03 → 2026-09-01, total 1956)</text>
  <g stroke="#3b4252" stroke-width="1">
    <line x1="60" x2="1160" y1="360.00" y2="360.00"/>
    <line x1="60" x2="1160" y1="201.72" y2="201.72"/>
    <line x1="60" x2="1160" y1="40.00" y2="40.00"/>
  </g>
  <g fill="#4c566a" font-size="12">
    <text x="52" y="364.00" text-anchor="end">0</text>
    <text x="52" y="205.72" text-anchor="end">46</text>
    <text x="52" y="44.00" text-anchor="end">93</text>
    <text x="60.00" y="380" text-anchor="middle">Sep</text>
    <text x="146.27" y="380" text-anchor="middle">Oct</text>
    <text x="254.12" y="380" text-anchor="middle">Nov</text>
    <text x="340.39" y="380" text-anchor="middle">Dec</text>
    <text x="448.24" y="380" text-anchor="middle">Jan</text>
    <text x="534.51" y="380" text-anchor="middle">Feb</text>
    <text x="620.78" y="380" text-anchor="middle">Mar</text>
    <text x="707.06" y="380" text-anchor="middle">Apr</text>
    <text x="814.90" y="380" text-anchor="middle">May</text>
    <text x="901.18" y="380" text-anchor="middle">Jun</text>
    <text x="987.45" y="380" text-anchor="middle">Jul</text>
    <text x="1095.29" y="380" text-anchor="middle">Aug</text>
  </g>
  <polygon points="60.00,360.00 60.00,311.83 81.57,332.47 103.14,263.66 124.71,301.51 146.27,335.91 167.84,294.62 189.41,291.18 210.98,294.62 232.55,287.74 254.12,291.18 275.69,284.30 297.25,291.18 318.82,212.04 340.39,270.54 361.96,277.42 383.53,243.01 405.10,249.89 426.67,322.15 448.24,311.83 469.80,304.95 491.37,284.30 512.94,318.71 534.51,360.00 556.08,360.00 577.65,360.00 599.22,360.00 620.78,342.80 642.35,150.11 663.92,225.81 685.49,222.37 707.06,108.82 728.63,64.09 750.20,156.99 771.76,160.43 793.33,187.96 814.90,126.02 836.47,291.18 858.04,163.87 879.61,77.85 901.18,50.32 922.75,115.70 944.31,170.75 965.88,84.73 987.45,50.32 1009.02,163.87 1030.59,191.40 1052.16,167.31 1073.73,222.37 1095.29,260.22 1116.86,201.72 1138.43,40.00 1160.00,177.63 1160.00,360.00" fill="#88c0d044"/>
  <polyline points="60.00,311.83 81.57,332.47 103.14,263.66 124.71,301.51 146.27,335.91 167.84,294.62 189.41,291.18 210.98,294.62 232.55,287.74 254.12,291.18 275.69,284.30 297.25,291.18 318.82,212.04 340.39,270.54 361.96,277.42 383.53,243.01 405.10,249.89 426.67,322.15 448.24,311.83 469.80,304.95 491.37,284.30 512.94,318.71 534.51,360.00 556.08,360.00 577.65,360.00 599.22,360.00 620.78,342.80 642.35,150.11 663.92,225.81 685.49,222.37 707.06,108.82 728.63,64.09 750.20,156.99 771.76,160.43 793.33,187.96 814.90,126.02 836.47,291.18 858.04,163.87 879.61,77.85 901.18,50.32 922.75,115.70 944.31,170.75 965.88,84.73 987.45,50.32 1009.02,163.87 1030.59,191.40 1052.16,167.31 1073.73,222.37 1095.29,260.22 1116.86,201.72 1138.43,40.00 1160.00,177.63" fill="none" stroke="#88c0d0" stroke-width="2.5" stroke-linejoin="round" stroke-linecap="round"/>
</svg>
