<svg xmlns="http://www.w3.org/2000/svg" viewBox="0 0 1200 400" width="1200" height="400" font-family="'Segoe UI',Ubuntu,Sans-Serif">
  <rect width="1200" height="400" fill="#2e3440"/>
  <text x="60" y="22" fill="#eceff4" font-size="16" font-weight="600">Commits per 7d — last 364 days (2025-10-13 → 2026-10-11, total 2303)</text>
  <g stroke="#3b4252" stroke-width="1">
    <line x1="60" x2="1160" y1="360.00" y2="360.00"/>
    <line x1="60" x2="1160" y1="201.26" y2="201.26"/>
    <line x1="60" x2="1160" y1="40.00" y2="40.00"/>
  </g>
  <g fill="#d8dee9" font-size="12">
    <text x="52" y="364.00" text-anchor="end">0</text>
    <text x="52" y="205.26" text-anchor="end">63</text>
    <text x="52" y="44.00" text-anchor="end">127</text>
    <text x="60.00" y="380" text-anchor="middle">Oct</text>
    <text x="124.71" y="380" text-anchor="middle">Nov</text>
    <text x="210.98" y="380" text-anchor="middle">Dec</text>
    <text x="318.82" y="380" text-anchor="middle">Jan</text>
    <text x="405.10" y="380" text-anchor="middle">Feb</text>
    <text x="491.37" y="380" text-anchor="middle">Mar</text>
    <text x="599.22" y="380" text-anchor="middle">Apr</text>
    <text x="685.49" y="380" text-anchor="middle">May</text>
    <text x="771.76" y="380" text-anchor="middle">Jun</text>
    <text x="879.61" y="380" text-anchor="middle">Jul</text>
    <text x="965.88" y="380" text-anchor="middle">Aug</text>
    <text x="1073.73" y="380" text-anchor="middle">Sep</text>
    <text x="1160.00" y="380" text-anchor="middle">Oct</text>
  </g>
  <path d="M 60.00,302.05 C 63.59,302.47 74.38,304.15 81.57,304.57 C 88.76,304.99 95.95,303.31 103.14,304.57 C 110.33,305.83 117.52,311.29 124.71,312.13 C 131.90,312.97 139.08,312.55 146.27,309.61 C 153.46,306.67 160.65,295.75 167.84,294.49 C 175.03,293.23 182.22,302.05 189.41,302.05 C 196.60,302.05 203.79,299.95 210.98,294.49 C 218.17,289.03 225.36,269.71 232.55,269.29 C 239.74,268.87 246.93,290.29 254.12,291.97 C 261.31,293.65 268.50,276.43 275.69,279.37 C 282.88,282.31 290.07,302.05 297.25,309.61 C 304.44,317.17 311.63,321.78 318.82,324.72 C 326.01,327.66 333.20,328.08 340.39,327.24 C 347.58,326.40 354.77,325.56 361.96,319.69 C 369.15,313.81 376.34,285.25 383.53,291.97 C 390.72,298.69 397.91,348.66 405.10,360.00 C 412.29,371.34 419.48,360.00 426.67,360.00 C 433.86,360.00 441.05,360.00 448.24,360.00 C 455.42,360.00 462.61,360.84 469.80,360.00 C 476.99,359.16 484.18,362.94 491.37,354.96 C 498.56,346.98 505.75,333.12 512.94,312.13 C 520.13,291.13 527.32,241.57 534.51,228.98 C 541.70,216.38 548.89,234.02 556.08,236.54 C 563.27,239.06 570.46,276.85 577.65,244.09 C 584.84,211.34 592.03,38.32 599.22,40.00 C 606.41,41.68 613.59,225.62 620.78,254.17 C 627.97,282.73 635.16,224.78 642.35,211.34 C 649.54,197.90 656.73,157.17 663.92,173.54 C 671.11,189.92 678.30,305.83 685.49,309.61 C 692.68,313.39 699.87,197.48 707.06,196.22 C 714.25,194.96 721.44,299.95 728.63,302.05 C 735.82,304.15 743.01,242.41 750.20,208.82 C 757.39,175.22 764.58,103.41 771.76,100.47 C 778.95,97.53 786.14,178.58 793.33,191.18 C 800.52,203.78 807.71,181.94 814.90,176.06 C 822.09,170.18 829.28,157.17 836.47,155.91 C 843.66,154.65 850.85,164.72 858.04,168.50 C 865.23,172.28 872.42,169.76 879.61,178.58 C 886.80,187.40 893.99,211.76 901.18,221.42 C 908.37,231.08 915.56,230.66 922.75,236.54 C 929.93,242.41 937.12,260.47 944.31,256.69 C 951.50,252.91 958.69,205.88 965.88,213.86 C 973.07,221.84 980.26,319.27 987.45,304.57 C 994.64,289.87 1001.83,132.81 1009.02,125.67 C 1016.21,118.53 1023.40,255.85 1030.59,261.73 C 1037.78,267.61 1044.97,175.64 1052.16,160.94 C 1059.35,146.25 1066.54,174.80 1073.73,173.54 C 1080.92,172.28 1088.10,134.49 1095.29,153.39 C 1102.48,172.28 1109.67,299.53 1116.86,286.93 C 1124.05,274.33 1131.24,105.09 1138.43,77.80 C 1145.62,50.50 1156.41,115.59 1160.00,123.15 L 1160.00,360.00 L 60.00,360.00 Z" fill="#88c0d044"/>
  <path d="M 60.00,302.05 C 63.59,302.47 74.38,304.15 81.57,304.57 C 88.76,304.99 95.95,303.31 103.14,304.57 C 110.33,305.83 117.52,311.29 124.71,312.13 C 131.90,312.97 139.08,312.55 146.27,309.61 C 153.46,306.67 160.65,295.75 167.84,294.49 C 175.03,293.23 182.22,302.05 189.41,302.05 C 196.60,302.05 203.79,299.95 210.98,294.49 C 218.17,289.03 225.36,269.71 232.55,269.29 C 239.74,268.87 246.93,290.29 254.12,291.97 C 261.31,293.65 268.50,276.43 275.69,279.37 C 282.88,282.31 290.07,302.05 297.25,309.61 C 304.44,317.17 311.63,321.78 318.82,324.72 C 326.01,327.66 333.20,328.08 340.39,327.24 C 347.58,326.40 354.77,325.56 361.96,319.69 C 369.15,313.81 376.34,285.25 383.53,291.97 C 390.72,298.69 397.91,348.66 405.10,360.00 C 412.29,371.34 419.48,360.00 426.67,360.00 C 433.86,360.00 441.05,360.00 448.24,360.00 C 455.42,360.00 462.61,360.84 469.80,360.00 C 476.99,359.16 484.18,362.94 491.37,354.96 C 498.56,346.98 505.75,333.12 512.94,312.13 C 520.13,291.13 527.32,241.57 534.51,228.98 C 541.70,216.38 548.89,234.02 556.08,236.54 C 563.27,239.06 570.46,276.85 577.65,244.09 C 584.84,211.34 592.03,38.32 599.22,40.00 C 606.41,41.68 613.59,225.62 620.78,254.17 C 627.97,282.73 635.16,224.78 642.35,211.34 C 649.54,197.90 656.73,157.17 663.92,173.54 C 671.11,189.92 678.30,305.83 685.49,309.61 C 692.68,313.39 699.87,197.48 707.06,196.22 C 714.25,194.96 721.44,299.95 728.63,302.05 C 735.82,304.15 743.01,242.41 750.20,208.82 C 757.39,175.22 764.58,103.41 771.76,100.47 C 778.95,97.53 786.14,178.58 793.33,191.18 C 800.52,203.78 807.71,181.94 814.90,176.06 C 822.09,170.18 829.28,157.17 836.47,155.91 C 843.66,154.65 850.85,164.72 858.04,168.50 C 865.23,172.28 872.42,169.76 879.61,178.58 C 886.80,187.40 893.99,211.76 901.18,221.42 C 908.37,231.08 915.56,230.66 922.75,236.54 C 929.93,242.41 937.12,260.47 944.31,256.69 C 951.50,252.91 958.69,205.88 965.88,213.86 C 973.07,221.84 980.26,319.27 987.45,304.57 C 994.64,289.87 1001.83,132.81 1009.02,125.67 C 1016.21,118.53 1023.40,255.85 1030.59,261.73 C 1037.78,267.61 1044.97,175.64 1052.16,160.94 C 1059.35,146.25 1066.54,174.80 1073.73,173.54 C 1080.92,172.28 1088.10,134.49 1095.29,153.39 C 1102.48,172.28 1109.67,299.53 1116.86,286.93 C 1124.05,274.33 1131.24,105.09 1138.43,77.80 C 1145.62,50.50 1156.41,115.59 1160.00,123.15" fill="none" stroke="#88c0d0" stroke-width="2.5" stroke-linejoin="round" stroke-linecap="round"/>
</svg>
